<mxfile host="65bd71144e">
    <diagram id="C5RBs43oDa-KdzZeNtuy" name="Page-1">
        <mxGraphModel dx="3277" dy="907" grid="1" gridSize="10" guides="1" tooltips="1" connect="1" arrows="1" fold="1" page="1" pageScale="1" pageWidth="1200" pageHeight="1920" math="0" shadow="0">
            <root>
                <mxCell id="WIyWlLk6GJQsqaUBKTNV-0"/>
                <mxCell id="WIyWlLk6GJQsqaUBKTNV-1" parent="WIyWlLk6GJQsqaUBKTNV-0"/>
                <mxCell id="FBJqxQSfG6q5Dgu4mfyf-16" value="module: airport.py" style="shape=module;align=left;spacingLeft=20;align=center;verticalAlign=top;whiteSpace=wrap;html=1;" parent="WIyWlLk6GJQsqaUBKTNV-1" vertex="1">
                    <mxGeometry x="260" y="54" width="760" height="610" as="geometry"/>
                </mxCell>
                <mxCell id="FBJqxQSfG6q5Dgu4mfyf-5" value="module: aircraft.py" style="shape=module;align=left;spacingLeft=20;align=center;verticalAlign=top;whiteSpace=wrap;html=1;movable=1;resizable=1;rotatable=1;deletable=1;editable=1;locked=0;connectable=1;" parent="WIyWlLk6GJQsqaUBKTNV-1" vertex="1">
                    <mxGeometry x="-1010" y="54" width="1040" height="610" as="geometry"/>
                </mxCell>
                <mxCell id="iqvePdSqnSLNCN-937UF-0" value="Aircraft" style="swimlane;fontStyle=0;childLayout=stackLayout;horizontal=1;startSize=26;fillColor=none;horizontalStack=0;resizeParent=1;resizeParentMax=0;resizeLast=0;collapsible=1;marginBottom=0;whiteSpace=wrap;html=1;" parent="WIyWlLk6GJQsqaUBKTNV-1" vertex="1">
                    <mxGeometry x="-930" y="102" width="610" height="312" as="geometry"/>
                </mxCell>
                <mxCell id="iqvePdSqnSLNCN-937UF-1" value="+ name: const string" style="text;strokeColor=none;fillColor=none;align=left;verticalAlign=top;spacingLeft=4;spacingRight=4;overflow=hidden;rotatable=0;points=[[0,0.5],[1,0.5]];portConstraint=eastwest;whiteSpace=wrap;html=1;" parent="iqvePdSqnSLNCN-937UF-0" vertex="1">
                    <mxGeometry y="26" width="610" height="26" as="geometry"/>
                </mxCell>
                <mxCell id="2-22p67KsCmv7Br5WCcd-1" value="+ type: const AircraftType" style="text;strokeColor=none;fillColor=none;align=left;verticalAlign=top;spacingLeft=4;spacingRight=4;overflow=hidden;rotatable=0;points=[[0,0.5],[1,0.5]];portConstraint=eastwest;whiteSpace=wrap;html=1;" parent="iqvePdSqnSLNCN-937UF-0" vertex="1">
                    <mxGeometry y="52" width="610" height="26" as="geometry"/>
                </mxCell>
                <mxCell id="47" value="+ home_airport: Airport" style="text;strokeColor=none;fillColor=none;align=left;verticalAlign=top;spacingLeft=4;spacingRight=4;overflow=hidden;rotatable=0;points=[[0,0.5],[1,0.5]];portConstraint=eastwest;whiteSpace=wrap;html=1;" parent="iqvePdSqnSLNCN-937UF-0" vertex="1">
                    <mxGeometry y="78" width="610" height="26" as="geometry"/>
                </mxCell>
                <mxCell id="20" value="+ tail_number: const string" style="text;strokeColor=none;fillColor=none;align=left;verticalAlign=top;spacingLeft=4;spacingRight=4;overflow=hidden;rotatable=0;points=[[0,0.5],[1,0.5]];portConstraint=eastwest;whiteSpace=wrap;html=1;" parent="iqvePdSqnSLNCN-937UF-0" vertex="1">
                    <mxGeometry y="104" width="610" height="26" as="geometry"/>
                </mxCell>
                <mxCell id="iqvePdSqnSLNCN-937UF-2" value="+ passenger_capacity: const int" style="text;strokeColor=none;fillColor=none;align=left;verticalAlign=top;spacingLeft=4;spacingRight=4;overflow=hidden;rotatable=0;points=[[0,0.5],[1,0.5]];portConstraint=eastwest;whiteSpace=wrap;html=1;" parent="iqvePdSqnSLNCN-937UF-0" vertex="1">
                    <mxGeometry y="130" width="610" height="26" as="geometry"/>
                </mxCell>
                <mxCell id="2-22p67KsCmv7Br5WCcd-0" value="+ cruise_speed: const int" style="text;strokeColor=none;fillColor=none;align=left;verticalAlign=top;spacingLeft=4;spacingRight=4;overflow=hidden;rotatable=0;points=[[0,0.5],[1,0.5]];portConstraint=eastwest;whiteSpace=wrap;html=1;" parent="iqvePdSqnSLNCN-937UF-0" vertex="1">
                    <mxGeometry y="156" width="610" height="26" as="geometry"/>
                </mxCell>
                <mxCell id="6XMd4bnJF70WychvztIt-2" value="+ fuel_level: int" style="text;strokeColor=none;fillColor=none;align=left;verticalAlign=top;spacingLeft=4;spacingRight=4;overflow=hidden;rotatable=0;points=[[0,0.5],[1,0.5]];portConstraint=eastwest;whiteSpace=wrap;html=1;" parent="iqvePdSqnSLNCN-937UF-0" vertex="1">
                    <mxGeometry y="182" width="610" height="26" as="geometry"/>
                </mxCell>
                <mxCell id="6XMd4bnJF70WychvztIt-1" value="+ max_fuel_capacity: const int" style="text;strokeColor=none;fillColor=none;align=left;verticalAlign=top;spacingLeft=4;spacingRight=4;overflow=hidden;rotatable=0;points=[[0,0.5],[1,0.5]];portConstraint=eastwest;whiteSpace=wrap;html=1;" parent="iqvePdSqnSLNCN-937UF-0" vertex="1">
                    <mxGeometry y="208" width="610" height="26" as="geometry"/>
                </mxCell>
                <mxCell id="2-22p67KsCmv7Br5WCcd-2" value="+ max_range: const int" style="text;strokeColor=none;fillColor=none;align=left;verticalAlign=top;spacingLeft=4;spacingRight=4;overflow=hidden;rotatable=0;points=[[0,0.5],[1,0.5]];portConstraint=eastwest;whiteSpace=wrap;html=1;" parent="iqvePdSqnSLNCN-937UF-0" vertex="1">
                    <mxGeometry y="234" width="610" height="26" as="geometry"/>
                </mxCell>
                <mxCell id="iqvePdSqnSLNCN-937UF-3" value="+ max_altitude: const int" style="text;strokeColor=none;fillColor=none;align=left;verticalAlign=top;spacingLeft=4;spacingRight=4;overflow=hidden;rotatable=0;points=[[0,0.5],[1,0.5]];portConstraint=eastwest;whiteSpace=wrap;html=1;" parent="iqvePdSqnSLNCN-937UF-0" vertex="1">
                    <mxGeometry y="260" width="610" height="26" as="geometry"/>
                </mxCell>
                <mxCell id="2-22p67KsCmv7Br5WCcd-8" value="+ __init__(self, name, type, home_airport, passenger_capacity, cruise_speed, max_range, max_altitude): None" style="text;strokeColor=default;fillColor=none;align=left;verticalAlign=top;spacingLeft=4;spacingRight=4;overflow=hidden;rotatable=0;points=[[0,0.5],[1,0.5]];portConstraint=eastwest;whiteSpace=wrap;html=1;" parent="iqvePdSqnSLNCN-937UF-0" vertex="1">
                    <mxGeometry y="286" width="610" height="26" as="geometry"/>
                </mxCell>
                <mxCell id="iqvePdSqnSLNCN-937UF-4" value="Airport" style="swimlane;fontStyle=0;childLayout=stackLayout;horizontal=1;startSize=26;fillColor=none;horizontalStack=0;resizeParent=1;resizeParentMax=0;resizeLast=0;collapsible=1;marginBottom=0;whiteSpace=wrap;html=1;" parent="WIyWlLk6GJQsqaUBKTNV-1" vertex="1">
                    <mxGeometry x="420" y="160" width="530" height="324" as="geometry"/>
                </mxCell>
                <mxCell id="iqvePdSqnSLNCN-937UF-5" value="+ name: const string" style="text;strokeColor=none;fillColor=none;align=left;verticalAlign=top;spacingLeft=4;spacingRight=4;overflow=hidden;rotatable=0;points=[[0,0.5],[1,0.5]];portConstraint=eastwest;whiteSpace=wrap;html=1;" parent="iqvePdSqnSLNCN-937UF-4" vertex="1">
                    <mxGeometry y="26" width="530" height="26" as="geometry"/>
                </mxCell>
                <mxCell id="iqvePdSqnSLNCN-937UF-6" value="+ iata_code: const string" style="text;strokeColor=none;fillColor=none;align=left;verticalAlign=top;spacingLeft=4;spacingRight=4;overflow=hidden;rotatable=0;points=[[0,0.5],[1,0.5]];portConstraint=eastwest;whiteSpace=wrap;html=1;" parent="iqvePdSqnSLNCN-937UF-4" vertex="1">
                    <mxGeometry y="52" width="530" height="26" as="geometry"/>
                </mxCell>
                <mxCell id="iqvePdSqnSLNCN-937UF-8" value="+ city: const string" style="text;strokeColor=none;fillColor=none;align=left;verticalAlign=top;spacingLeft=4;spacingRight=4;overflow=hidden;rotatable=0;points=[[0,0.5],[1,0.5]];portConstraint=eastwest;whiteSpace=wrap;html=1;" parent="iqvePdSqnSLNCN-937UF-4" vertex="1">
                    <mxGeometry y="78" width="530" height="30" as="geometry"/>
                </mxCell>
                <mxCell id="iqvePdSqnSLNCN-937UF-9" value="+ state: const string" style="text;strokeColor=none;fillColor=none;align=left;verticalAlign=top;spacingLeft=4;spacingRight=4;overflow=hidden;rotatable=0;points=[[0,0.5],[1,0.5]];portConstraint=eastwest;whiteSpace=wrap;html=1;" parent="iqvePdSqnSLNCN-937UF-4" vertex="1">
                    <mxGeometry y="108" width="530" height="30" as="geometry"/>
                </mxCell>
                <mxCell id="iqvePdSqnSLNCN-937UF-10" value="+ metro_population: const int" style="text;strokeColor=none;fillColor=none;align=left;verticalAlign=top;spacingLeft=4;spacingRight=4;overflow=hidden;rotatable=0;points=[[0,0.5],[1,0.5]];portConstraint=eastwest;whiteSpace=wrap;html=1;" parent="iqvePdSqnSLNCN-937UF-4" vertex="1">
                    <mxGeometry y="138" width="530" height="32" as="geometry"/>
                </mxCell>
                <mxCell id="iqvePdSqnSLNCN-937UF-34" value="+ is_hub: bool" style="text;strokeColor=none;fillColor=none;align=left;verticalAlign=top;spacingLeft=4;spacingRight=4;overflow=hidden;rotatable=0;points=[[0,0.5],[1,0.5]];portConstraint=eastwest;whiteSpace=wrap;html=1;" parent="iqvePdSqnSLNCN-937UF-4" vertex="1">
                    <mxGeometry y="170" width="530" height="32" as="geometry"/>
                </mxCell>
                <mxCell id="iqvePdSqnSLNCN-937UF-31" value="+ num_gates: const int" style="text;strokeColor=none;fillColor=none;align=left;verticalAlign=top;spacingLeft=4;spacingRight=4;overflow=hidden;rotatable=0;points=[[0,0.5],[1,0.5]];portConstraint=eastwest;whiteSpace=wrap;html=1;" parent="iqvePdSqnSLNCN-937UF-4" vertex="1">
                    <mxGeometry y="202" width="530" height="32" as="geometry"/>
                </mxCell>
                <mxCell id="iqvePdSqnSLNCN-937UF-12" value="+ latitude: const float" style="text;strokeColor=none;fillColor=none;align=left;verticalAlign=top;spacingLeft=4;spacingRight=4;overflow=hidden;rotatable=0;points=[[0,0.5],[1,0.5]];portConstraint=eastwest;whiteSpace=wrap;html=1;" parent="iqvePdSqnSLNCN-937UF-4" vertex="1">
                    <mxGeometry y="234" width="530" height="32" as="geometry"/>
                </mxCell>
                <mxCell id="iqvePdSqnSLNCN-937UF-13" value="+ longitude: const float" style="text;strokeColor=none;fillColor=none;align=left;verticalAlign=top;spacingLeft=4;spacingRight=4;overflow=hidden;rotatable=0;points=[[0,0.5],[1,0.5]];portConstraint=eastwest;whiteSpace=wrap;html=1;" parent="iqvePdSqnSLNCN-937UF-4" vertex="1">
                    <mxGeometry y="266" width="530" height="32" as="geometry"/>
                </mxCell>
                <mxCell id="iqvePdSqnSLNCN-937UF-30" value="+ __init__(self, name, iata_code, city, state, is_hub, metro_population, latitude, longitude): None" style="text;strokeColor=default;fillColor=none;align=left;verticalAlign=top;spacingLeft=4;spacingRight=4;overflow=hidden;rotatable=0;points=[[0,0.5],[1,0.5]];portConstraint=eastwest;whiteSpace=wrap;html=1;" parent="iqvePdSqnSLNCN-937UF-4" vertex="1">
                    <mxGeometry y="298" width="530" height="26" as="geometry"/>
                </mxCell>
                <mxCell id="FBJqxQSfG6q5Dgu4mfyf-0" value="enum AircraftType" style="swimlane;fontStyle=0;childLayout=stackLayout;horizontal=1;startSize=26;fillColor=none;horizontalStack=0;resizeParent=1;resizeParentMax=0;resizeLast=0;collapsible=1;marginBottom=0;whiteSpace=wrap;html=1;" parent="WIyWlLk6GJQsqaUBKTNV-1" vertex="1">
                    <mxGeometry x="-205" y="400" width="140" height="132" as="geometry"/>
                </mxCell>
                <mxCell id="FBJqxQSfG6q5Dgu4mfyf-1" value="Boeing_737_600" style="text;strokeColor=none;fillColor=none;align=left;verticalAlign=top;spacingLeft=4;spacingRight=4;overflow=hidden;rotatable=0;points=[[0,0.5],[1,0.5]];portConstraint=eastwest;whiteSpace=wrap;html=1;" parent="FBJqxQSfG6q5Dgu4mfyf-0" vertex="1">
                    <mxGeometry y="26" width="140" height="26" as="geometry"/>
                </mxCell>
                <mxCell id="FBJqxQSfG6q5Dgu4mfyf-2" value="Boeing_737_800" style="text;strokeColor=none;fillColor=none;align=left;verticalAlign=top;spacingLeft=4;spacingRight=4;overflow=hidden;rotatable=0;points=[[0,0.5],[1,0.5]];portConstraint=eastwest;whiteSpace=wrap;html=1;" parent="FBJqxQSfG6q5Dgu4mfyf-0" vertex="1">
                    <mxGeometry y="52" width="140" height="28" as="geometry"/>
                </mxCell>
                <mxCell id="FBJqxQSfG6q5Dgu4mfyf-4" value="Airbus_A200_100" style="text;strokeColor=none;fillColor=none;align=left;verticalAlign=top;spacingLeft=4;spacingRight=4;overflow=hidden;rotatable=0;points=[[0,0.5],[1,0.5]];portConstraint=eastwest;whiteSpace=wrap;html=1;" parent="FBJqxQSfG6q5Dgu4mfyf-0" vertex="1">
                    <mxGeometry y="80" width="140" height="26" as="geometry"/>
                </mxCell>
                <mxCell id="FBJqxQSfG6q5Dgu4mfyf-3" value="Airbus_A220_300" style="text;strokeColor=none;fillColor=none;align=left;verticalAlign=top;spacingLeft=4;spacingRight=4;overflow=hidden;rotatable=0;points=[[0,0.5],[1,0.5]];portConstraint=eastwest;whiteSpace=wrap;html=1;" parent="FBJqxQSfG6q5Dgu4mfyf-0" vertex="1">
                    <mxGeometry y="106" width="140" height="26" as="geometry"/>
                </mxCell>
                <mxCell id="FBJqxQSfG6q5Dgu4mfyf-6" value="AircraftFactory" style="swimlane;fontStyle=0;childLayout=stackLayout;horizontal=1;startSize=26;fillColor=none;horizontalStack=0;resizeParent=1;resizeParentMax=0;resizeLast=0;collapsible=1;marginBottom=0;whiteSpace=wrap;html=1;" parent="WIyWlLk6GJQsqaUBKTNV-1" vertex="1">
                    <mxGeometry x="-230" y="180" width="190" height="52" as="geometry"/>
                </mxCell>
                <mxCell id="FBJqxQSfG6q5Dgu4mfyf-7" value="+ create(AircraftType): Aircraft" style="text;strokeColor=none;fillColor=none;align=left;verticalAlign=top;spacingLeft=4;spacingRight=4;overflow=hidden;rotatable=0;points=[[0,0.5],[1,0.5]];portConstraint=eastwest;whiteSpace=wrap;html=1;" parent="FBJqxQSfG6q5Dgu4mfyf-6" vertex="1">
                    <mxGeometry y="26" width="190" height="26" as="geometry"/>
                </mxCell>
                <mxCell id="FBJqxQSfG6q5Dgu4mfyf-15" value="&lt;div&gt;Defines API&lt;/div&gt;" style="endArrow=open;endSize=12;dashed=1;html=1;rounded=0;exitX=0.5;exitY=0;exitDx=0;exitDy=0;entryX=0.512;entryY=1.192;entryDx=0;entryDy=0;entryPerimeter=0;" parent="WIyWlLk6GJQsqaUBKTNV-1" source="FBJqxQSfG6q5Dgu4mfyf-0" target="FBJqxQSfG6q5Dgu4mfyf-7" edge="1">
                    <mxGeometry width="160" relative="1" as="geometry">
                        <mxPoint x="-140" y="310" as="sourcePoint"/>
                        <mxPoint x="20" y="310" as="targetPoint"/>
                    </mxGeometry>
                </mxCell>
                <mxCell id="2-22p67KsCmv7Br5WCcd-5" value="&lt;div&gt;Creates&lt;/div&gt;" style="endArrow=open;endSize=12;dashed=1;html=1;rounded=0;entryX=1.004;entryY=0.115;entryDx=0;entryDy=0;entryPerimeter=0;" parent="WIyWlLk6GJQsqaUBKTNV-1" target="2-22p67KsCmv7Br5WCcd-0" edge="1">
                    <mxGeometry width="160" relative="1" as="geometry">
                        <mxPoint x="-220" y="209.21739130434776" as="sourcePoint"/>
                        <mxPoint x="-300" y="232" as="targetPoint"/>
                    </mxGeometry>
                </mxCell>
                <mxCell id="21" value="flight.py" style="shape=folder;fontStyle=1;tabWidth=110;tabHeight=30;tabPosition=left;html=1;boundedLbl=1;labelInHeader=1;container=1;collapsible=0;" parent="WIyWlLk6GJQsqaUBKTNV-1" vertex="1">
                    <mxGeometry x="-1000" y="690" width="1030" height="570" as="geometry"/>
                </mxCell>
                <mxCell id="22" value="" style="html=1;strokeColor=none;resizeWidth=1;resizeHeight=1;fillColor=none;part=1;connectable=0;allowArrows=0;deletable=0;" parent="21" vertex="1">
                    <mxGeometry width="1030" height="399" relative="1" as="geometry">
                        <mxPoint y="30" as="offset"/>
                    </mxGeometry>
                </mxCell>
                <mxCell id="23" value="Flight" style="swimlane;fontStyle=0;align=center;verticalAlign=top;childLayout=stackLayout;horizontal=1;startSize=30;horizontalStack=0;resizeParent=1;resizeParentMax=0;resizeLast=0;collapsible=0;marginBottom=0;html=1;" parent="21" vertex="1">
                    <mxGeometry x="93.63636363636364" y="120" width="640" height="198" as="geometry"/>
                </mxCell>
                <mxCell id="42" value="+ flight_id: const int" style="text;html=1;strokeColor=none;fillColor=none;align=left;verticalAlign=middle;spacingLeft=4;spacingRight=4;overflow=hidden;rotatable=0;points=[[0,0.5],[1,0.5]];portConstraint=eastwest;" parent="23" vertex="1">
                    <mxGeometry y="30" width="640" height="20" as="geometry"/>
                </mxCell>
                <mxCell id="24" value="+ source_airport: Airport" style="text;html=1;strokeColor=none;fillColor=none;align=left;verticalAlign=middle;spacingLeft=4;spacingRight=4;overflow=hidden;rotatable=0;points=[[0,0.5],[1,0.5]];portConstraint=eastwest;" parent="23" vertex="1">
                    <mxGeometry y="50" width="640" height="20" as="geometry"/>
                </mxCell>
                <mxCell id="25" value="+ destination_airport: Airport" style="text;html=1;strokeColor=none;fillColor=none;align=left;verticalAlign=middle;spacingLeft=4;spacingRight=4;overflow=hidden;rotatable=0;points=[[0,0.5],[1,0.5]];portConstraint=eastwest;" parent="23" vertex="1">
                    <mxGeometry y="70" width="640" height="20" as="geometry"/>
                </mxCell>
                <mxCell id="26" value="+ departure_time: Time" style="text;html=1;strokeColor=none;fillColor=none;align=left;verticalAlign=middle;spacingLeft=4;spacingRight=4;overflow=hidden;rotatable=0;points=[[0,0.5],[1,0.5]];portConstraint=eastwest;" parent="23" vertex="1">
                    <mxGeometry y="90" width="640" height="20" as="geometry"/>
                </mxCell>
                <mxCell id="27" value="&amp;nbsp;+ flight_duration: Time" style="text;html=1;strokeColor=none;fillColor=none;align=left;verticalAlign=middle;spacingLeft=4;spacingRight=4;overflow=hidden;rotatable=0;points=[[0,0.5],[1,0.5]];portConstraint=eastwest;" parent="23" vertex="1">
                    <mxGeometry y="110" width="640" height="20" as="geometry"/>
                </mxCell>
                <mxCell id="28" value="&amp;nbsp;+ aircraft: Aircraft" style="text;html=1;strokeColor=none;fillColor=none;align=left;verticalAlign=middle;spacingLeft=4;spacingRight=4;overflow=hidden;rotatable=0;points=[[0,0.5],[1,0.5]];portConstraint=eastwest;" parent="23" vertex="1">
                    <mxGeometry y="130" width="640" height="20" as="geometry"/>
                </mxCell>
                <mxCell id="41" value="&amp;nbsp;+ ticket_cost: Decimal" style="text;html=1;strokeColor=none;fillColor=none;align=left;verticalAlign=middle;spacingLeft=4;spacingRight=4;overflow=hidden;rotatable=0;points=[[0,0.5],[1,0.5]];portConstraint=eastwest;" parent="23" vertex="1">
                    <mxGeometry y="150" width="640" height="20" as="geometry"/>
                </mxCell>
                <mxCell id="31" value="" style="line;strokeWidth=1;fillColor=none;align=left;verticalAlign=middle;spacingTop=-1;spacingLeft=3;spacingRight=3;rotatable=0;labelPosition=right;points=[];portConstraint=eastwest;" parent="23" vertex="1">
                    <mxGeometry y="170" width="640" height="8" as="geometry"/>
                </mxCell>
                <mxCell id="43" value="+ __init__(self, flight_id, source_airport, destination_airport, departure_time, flight_duration, aircraft, ticket_cost): None" style="text;html=1;strokeColor=none;fillColor=none;align=left;verticalAlign=middle;spacingLeft=4;spacingRight=4;overflow=hidden;rotatable=0;points=[[0,0.5],[1,0.5]];portConstraint=eastwest;" parent="23" vertex="1">
                    <mxGeometry y="178" width="640" height="20" as="geometry"/>
                </mxCell>
                <mxCell id="32" value="timetable.py" style="shape=folder;fontStyle=1;tabWidth=110;tabHeight=30;tabPosition=left;html=1;boundedLbl=1;labelInHeader=1;container=1;collapsible=0;" parent="WIyWlLk6GJQsqaUBKTNV-1" vertex="1">
                    <mxGeometry x="220" y="700" width="860" height="570" as="geometry"/>
                </mxCell>
                <mxCell id="33" value="" style="html=1;strokeColor=none;resizeWidth=1;resizeHeight=1;fillColor=none;part=1;connectable=0;allowArrows=0;deletable=0;" parent="32" vertex="1">
                    <mxGeometry width="860" height="399" relative="1" as="geometry">
                        <mxPoint y="30" as="offset"/>
                    </mxGeometry>
                </mxCell>
                <mxCell id="34" value="Timetable" style="swimlane;fontStyle=0;align=center;verticalAlign=top;childLayout=stackLayout;horizontal=1;startSize=30;horizontalStack=0;resizeParent=1;resizeParentMax=0;resizeLast=0;collapsible=0;marginBottom=0;html=1;" parent="32" vertex="1">
                    <mxGeometry x="184.2857142857143" y="120" width="290" height="194" as="geometry"/>
                </mxCell>
                <mxCell id="35" value="&amp;nbsp;+ flights: list[Flight]" style="text;html=1;strokeColor=none;fillColor=none;align=left;verticalAlign=middle;spacingLeft=4;spacingRight=4;overflow=hidden;rotatable=0;points=[[0,0.5],[1,0.5]];portConstraint=eastwest;" parent="34" vertex="1">
                    <mxGeometry y="30" width="290" height="20" as="geometry"/>
                </mxCell>
                <mxCell id="46" value="&amp;nbsp;+ locale: locale" style="text;html=1;strokeColor=none;fillColor=none;align=left;verticalAlign=middle;spacingLeft=4;spacingRight=4;overflow=hidden;rotatable=0;points=[[0,0.5],[1,0.5]];portConstraint=eastwest;" parent="34" vertex="1">
                    <mxGeometry y="50" width="290" height="20" as="geometry"/>
                </mxCell>
                <mxCell id="36" value="" style="line;strokeWidth=1;fillColor=none;align=left;verticalAlign=middle;spacingTop=-1;spacingLeft=3;spacingRight=3;rotatable=0;labelPosition=right;points=[];portConstraint=eastwest;" parent="34" vertex="1">
                    <mxGeometry y="70" width="290" height="8" as="geometry"/>
                </mxCell>
                <mxCell id="37" value="operations" style="text;html=1;strokeColor=none;fillColor=none;align=center;verticalAlign=middle;spacingLeft=4;spacingRight=4;overflow=hidden;rotatable=0;points=[[0,0.5],[1,0.5]];portConstraint=eastwest;" parent="34" vertex="1">
                    <mxGeometry y="78" width="290" height="20" as="geometry"/>
                </mxCell>
                <mxCell id="44" value="+ __init__(self): None" style="text;html=1;strokeColor=none;fillColor=none;align=left;verticalAlign=middle;spacingLeft=4;spacingRight=4;overflow=hidden;rotatable=0;points=[[0,0.5],[1,0.5]];portConstraint=eastwest;" parent="34" vertex="1">
                    <mxGeometry y="98" width="290" height="32" as="geometry"/>
                </mxCell>
                <mxCell id="45" value="+ from_csv(): Timetable" style="text;html=1;strokeColor=none;fillColor=none;align=left;verticalAlign=middle;spacingLeft=4;spacingRight=4;overflow=hidden;rotatable=0;points=[[0,0.5],[1,0.5]];portConstraint=eastwest;" parent="34" vertex="1">
                    <mxGeometry y="130" width="290" height="32" as="geometry"/>
                </mxCell>
                <mxCell id="38" value="+ fitness(self): float" style="text;html=1;strokeColor=none;fillColor=none;align=left;verticalAlign=middle;spacingLeft=4;spacingRight=4;overflow=hidden;rotatable=0;points=[[0,0.5],[1,0.5]];portConstraint=eastwest;" parent="34" vertex="1">
                    <mxGeometry y="162" width="290" height="32" as="geometry"/>
                </mxCell>
                <mxCell id="39" value="&amp;nbsp;Population: List of timetables&lt;br&gt;&amp;nbsp;Chromosomes: Flights in each timetable&lt;br&gt;&amp;nbsp;Genes: mutable flight attributes (departure time, aircraft)" style="shape=note2;boundedLbl=1;whiteSpace=wrap;html=1;size=25;verticalAlign=top;align=left;" parent="32" vertex="1">
                    <mxGeometry x="614.2857142857143" y="40" width="238.0357142857143" height="90" as="geometry"/>
                </mxCell>
            </root>
        </mxGraphModel>
    </diagram>
</mxfile>